<?xml version="1.0" encoding="UTF-8"?>
<svg version="1.1" xmlns="http://www.w3.org/2000/svg" width="500" height="500">
<path d="M0 0 C0.9075 0.7425 1.815 1.485 2.75 2.25 C3.4107251 2.78753906 4.0714502 3.32507813 4.75219727 3.87890625 C7 6 7 6 9.16772461 8.96484375 C12.55844083 13.44058745 15.96220207 17.27254031 21.59515381 18.62145996 C28.9784121 19.44506149 36.40640258 19.06565736 43.8125 18.75 C47.15551958 18.62987418 50.49522665 18.52825668 53.8400116 18.47515869 C55.9090578 18.44048477 57.97793663 18.36707997 60.04389954 18.2489624 C66.86791191 18.10899913 66.86791191 18.10899913 69.96604919 20.54736328 C71.7687706 22.62197971 73.37301613 24.78583342 75 27 C76.21895372 28.30579689 77.46358189 29.58807907 78.73217773 30.84570312 C79.37231308 31.48576294 80.01244843 32.12582275 80.67198181 32.78527832 C81.33581375 33.44394897 81.99964569 34.10261963 82.68359375 34.78125 C83.38396255 35.48020386 84.08433136 36.17915771 84.80592346 36.89929199 C87.01408458 39.10191539 89.22572037 41.30101081 91.4375 43.5 C92.94749814 45.00497508 94.4572659 46.51018135 95.96679688 48.015625 C99.64187641 51.67975829 103.32007356 55.3407348 107 59 C111.53507517 55.37066318 115.07253962 51.83396973 118.47024536 47.13690186 C127.83170799 34.30957979 138.91688577 20.13809442 155.37011719 17.41601562 C172.47459424 15.61890178 189.97295315 17.06291795 207 19 C208.19311255 28.16259657 208.98718587 37.33513562 209.4375 46.5625 C209.4708847 47.24175034 209.50426941 47.92100067 209.53866577 48.62083435 C210.24956211 64.99514666 209.50224051 78.6680945 198.31640625 91.66796875 C189.23325071 101.51550773 178.821102 110.12974266 168 118 C169.39004845 121.2144819 170.94788908 123.08387459 173.60766602 125.34277344 C174.3450853 125.98123199 175.08250458 126.61969055 175.8422699 127.27749634 C177.03602989 128.30802628 177.03602989 128.30802628 178.25390625 129.359375 C207.5984861 155.55321035 207.5984861 155.55321035 208.45610046 165.34739685 C208.43163286 168.65855179 208.09275624 171.84863201 207.625 175.125 C206.46081261 183.32962497 206.25222588 189.02852737 211.17480469 195.80419922 C215.43663097 201.07131364 220.13960345 205.85070644 225 210.5625 C225.80028625 211.35054016 226.60057251 212.13858032 227.42510986 212.95050049 C229.74577013 215.2011013 232.10586055 217.39432525 234.5 219.56640625 C235.2159433 220.23546494 235.9318866 220.90452362 236.66952515 221.59385681 C240.54809133 225.00055936 240.54809133 225.00055936 245.43457031 226.09469604 C247.83723826 225.81479749 247.83723826 225.81479749 250.06152344 225.2374115 C252 225 252 225 254.75 227.125 C255.4925 228.07375 256.235 229.0225 257 230 C259.40038351 232.4603931 261.71182764 234.77832895 264.4375 236.875 C267.7134658 239.59165456 270.31341864 242.71332315 273 246 C269.66688525 247.7824918 266.75519057 248.48792856 263 249 C262.87625 250.093125 262.7525 251.18625 262.625 252.3125 C262 256 262 256 260 259 C258.62437146 257.71034824 257.29233607 256.37310707 256 255 C256 254.34 256 253.68 256 253 C255.360625 252.731875 254.72125 252.46375 254.0625 252.1875 C252 251 252 251 251 248 C250.0409375 247.5359375 250.0409375 247.5359375 249.0625 247.0625 C246.49948282 245.74215782 246.2592663 244.5185326 245 242 C244.34 241.690625 243.68 241.38125 243 241.0625 C241 240 241 240 239.6875 237.75 C239 235 239 235 239.88842773 232.30224609 C240.01770342 228.47602527 239.63590315 228.1013897 237.17602539 225.38134766 C235.83440179 224.04083112 234.47351111 222.71942141 233.09765625 221.4140625 C232.38596786 220.71227875 231.67427948 220.010495 230.94102478 219.28744507 C228.66407622 217.04968192 226.36401142 214.83746556 224.0625 212.625 C222.5146903 211.11229793 220.9684454 209.59799295 219.42382812 208.08203125 C215.6363914 204.3658252 211.81870442 200.68512397 208 197 C207.67 204.26 207.34 211.52 207 219 C201.72 219.33 196.44 219.66 191 220 C194.81203579 224.03486162 198.65299208 228.03895426 202.5234375 232.01782227 C203.83514612 233.37473428 205.13865713 234.73962171 206.43359375 236.11254883 C208.29919314 238.08759481 210.1926274 240.03185633 212.09375 241.97265625 C212.66492554 242.59028336 213.23610107 243.20791046 213.82458496 243.84425354 C216.9287947 247.06127195 216.9287947 247.06127195 221.10473633 248.08297729 C223.08078599 247.787827 225.04206706 247.39797558 227 247 C230 248.8125 230 248.8125 232 251 C232 251.66 232 252.32 232 253 C232.556875 253.226875 233.11375 253.45375 233.6875 253.6875 C237.31799803 255.74805294 240.22600435 258.40647953 242.0625 262.1875 C243.27828157 264.53801104 244.66979756 264.87248269 247 266 C247.33 266.99 247.66 267.98 248 269 C246.1128125 269.4640625 246.1128125 269.4640625 244.1875 269.9375 C241.33850176 270.96616485 240.26743091 271.5086937 238.80078125 274.203125 C238.0736706 276.45894146 237.46747675 278.67722488 237 281 C233.20752477 279.24407595 230.89421996 277.03540142 228 274 C226.7625 272.7625 226.7625 272.7625 225.5 271.5 C224.2625 270.2625 224.2625 270.2625 223 269 C222.13375 268.154375 221.2675 267.30875 220.375 266.4375 C219.59125 265.633125 218.8075 264.82875 218 264 C217.38125 263.401875 216.7625 262.80375 216.125 262.1875 C215 260 215 260 215.78198242 256.34741211 C216.27334345 252.78960081 215.83724808 251.08974926 213.74731445 248.17016602 C212.64866604 246.8399398 211.51827413 245.53551523 210.36328125 244.25390625 C209.75038742 243.55804916 209.13749359 242.86219208 208.50602722 242.14524841 C206.48271499 239.90798418 204.41024357 237.73004131 202.3125 235.5625 C201.59707031 234.81315186 200.88164062 234.06380371 200.14453125 233.29174805 C190.42197336 223.02713427 190.42197336 223.02713427 177.42393494 218.99755859 C173.00919064 219.18598349 168.67172582 219.71098146 164.29446411 220.29351807 C155.70469282 221.25974788 149.52954187 220.53907264 142.50976562 215.16748047 C129.82069696 204.39600892 118.71800806 191.69582422 108 179 C102.87491402 183.29119333 98.06953482 187.7831978 93.3515625 192.515625 C92.65356537 193.21266541 91.95556824 193.90970581 91.23641968 194.62786865 C89.77471165 196.08890075 88.3142473 197.55117809 86.85498047 199.01464844 C84.61409133 201.26093494 82.36786112 203.50178213 80.12109375 205.7421875 C78.69759556 207.16634578 77.27440722 208.59081385 75.8515625 210.015625 C74.84230209 211.02184906 74.84230209 211.02184906 73.81265259 212.04840088 C72.88566055 212.98012115 72.88566055 212.98012115 71.93994141 213.93066406 C71.12222763 214.74957123 71.12222763 214.74957123 70.28799438 215.58502197 C68.89174994 216.99036675 68.89174994 216.99036675 68 219 C48.2 219 28.4 219 8 219 C3.11637531 163.77747464 3.11637531 163.77747464 14.16575623 149.25819397 C23.75004504 138.11959255 35.13873285 128.62677617 47 120 C45.61812976 116.78319535 44.12388544 115.01537214 41.39233398 112.84765625 C7.84121787 85.53994569 7.84121787 85.53994569 6.15905762 70.37063599 C5.86225658 63.62266463 6.35213955 56.99757858 6.88476562 50.27441406 C7.93813301 38.21665262 7.93813301 38.21665262 2.625 27.76953125 C-1.89521387 22.72995789 -7.27326714 18.57968815 -13 15 C-11.16307611 10.99625569 -8.50882084 8.28042066 -5.375 5.25 C-4.859375 4.74339844 -4.34375 4.23679687 -3.8125 3.71484375 C-2.54616661 2.47196098 -1.2736856 1.23534724 0 0 Z M22 33 C21.7761934 38.67397543 21.61360464 44.345342 21.50561523 50.02270508 C21.46057098 51.95024401 21.3993116 53.87747912 21.32104492 55.80395508 C20.47612053 68.48257865 20.47612053 68.48257865 25.25 79.78125 C32.60677538 85.47272357 42.78563866 83.92836235 51.5625 83.5625 C53.44847204 83.51729888 55.33454828 83.47624418 57.22070312 83.43945312 C61.81639731 83.34083861 66.40704142 83.18587899 71 83 C71.2238066 77.32602457 71.38639536 71.654658 71.49438477 65.97729492 C71.53942902 64.04975599 71.6006884 62.12252088 71.67895508 60.19604492 C72.52387947 47.51742135 72.52387947 47.51742135 67.75 36.21875 C60.39322462 30.52727643 50.21436134 32.07163765 41.4375 32.4375 C39.55152796 32.48270112 37.66545172 32.52375582 35.77929688 32.56054688 C31.18360269 32.65916139 26.59295858 32.81412101 22 33 Z M146.32055664 38.72631836 C143.26283681 46.30645613 144.1031004 54.54041494 144.4375 62.5625 C144.48270112 64.44847204 144.52375582 66.33454828 144.56054688 68.22070312 C144.65916139 72.81639731 144.81412101 77.40704142 145 82 C150.53155345 82.22386432 156.06042792 82.38641927 161.59545898 82.49438477 C163.47450729 82.53941994 165.35324416 82.60067268 167.23120117 82.67895508 C179.6741371 83.49165041 179.6741371 83.49165041 190.75 78.75 C196.47931773 71.39678354 194.92898856 61.22938382 194.5625 52.4375 C194.51729888 50.55152796 194.47624418 48.66545172 194.43945312 46.77929688 C194.34083861 42.18360269 194.18587899 37.59295858 194 33 C188.46844655 32.77613568 182.93957208 32.61358073 177.40454102 32.50561523 C175.52549271 32.46058006 173.64675584 32.39932732 171.76879883 32.32104492 C157.56382808 31.33433865 157.56382808 31.33433865 146.32055664 38.72631836 Z M83 55 C83 68.53 83 82.06 83 96 C70.46 96 57.92 96 45 96 C49.80532908 101.64313179 49.80532908 101.64313179 54.8671875 106.96484375 C55.85332031 107.94614258 55.85332031 107.94614258 56.859375 108.94726562 C57.52453125 109.60404297 58.1896875 110.26082031 58.875 110.9375 C59.56335938 111.62134766 60.25171875 112.30519531 60.9609375 113.00976562 C62.63833641 114.67551593 64.31848946 116.33840361 66 118 C71.22948744 113.62970634 76.10289955 109.03088196 80.90234375 104.1953125 C81.6249086 103.4713327 82.34747345 102.74735291 83.0919342 102.00143433 C85.37616922 99.71164735 87.65688312 97.41839007 89.9375 95.125 C91.49521039 93.56226839 93.05315087 91.9997661 94.61132812 90.4375 C98.41021602 86.6276469 102.20622713 82.81494621 106 79 C104.30604375 75.39304781 102.30274387 73.05807309 99.46484375 70.234375 C98.57345703 69.34492188 97.68207031 68.45546875 96.76367188 67.5390625 C95.83103516 66.61867188 94.89839844 65.69828125 93.9375 64.75 C92.99113361 63.8050908 92.04516564 62.85978238 91.09960938 61.9140625 C87.50624625 57.55216878 87.50624625 57.55216878 83 55 Z M117.43237305 68.49951172 C114.61424766 71.32582622 111.80444428 74.16010628 109 77 C110.41901662 80.22745524 112.12855765 82.37258107 114.62353516 84.85058594 C115.36415192 85.59105164 116.10476868 86.33151733 116.86782837 87.09442139 C117.66683563 87.88310608 118.4658429 88.67179077 119.2890625 89.484375 C120.10748627 90.29996887 120.92591003 91.11556274 121.76913452 91.95587158 C124.38309973 94.55864562 127.00393505 97.15437762 129.625 99.75 C131.39889454 101.5138634 133.17233766 103.2781809 134.9453125 105.04296875 C139.29165142 109.36726136 143.64365081 113.6857933 148 118 C151.83923604 114.75455407 155.62326361 111.50321137 159.18359375 107.94921875 C159.88291016 107.25119141 160.58222656 106.55316406 161.30273438 105.83398438 C162.35944336 104.77147461 162.35944336 104.77147461 163.4375 103.6875 C164.16904297 102.95982422 164.90058594 102.23214844 165.65429688 101.48242188 C166.34458984 100.79083984 167.03488281 100.09925781 167.74609375 99.38671875 C168.37185303 98.75983154 168.9976123 98.13294434 169.64233398 97.48706055 C171.11237439 96.21251646 171.11237439 96.21251646 171 95 C158.13 95 145.26 95 132 95 C132 82.13 132 69.26 132 56 C127.3911156 56 120.61533132 65.32584734 117.43237305 68.49951172 Z M59.8125 126 C59.24724609 126.55300781 58.68199219 127.10601562 58.09960938 127.67578125 C53.84728115 131.91349666 50.67712861 136.09716185 47 141 C58.88 141 70.76 141 83 141 C83 154.86 83 168.72 83 183 C88.75439866 178.08840687 88.75439866 178.08840687 94.18359375 172.9140625 C94.88291016 172.21152344 95.58222656 171.50898438 96.30273438 170.78515625 C97.00720703 170.07230469 97.71167969 169.35945313 98.4375 168.625 C99.16904297 167.88894531 99.90058594 167.15289062 100.65429688 166.39453125 C102.43852723 164.59863926 104.22036124 162.80044015 106 161 C104.58234925 157.7797803 102.87664194 155.62827427 100.39233398 153.14941406 C99.65494492 152.40894836 98.91755585 151.66848267 98.15782166 150.90557861 C96.96401634 149.72255157 96.96401634 149.72255157 95.74609375 148.515625 C94.93004166 147.70003113 94.11398956 146.88443726 93.27320862 146.04412842 C91.54982011 144.3237585 89.8240043 142.6058172 88.09594727 140.89013672 C85.43902715 138.25151663 82.79023958 135.60493838 80.14257812 132.95703125 C78.46922215 131.28858882 76.79540975 129.62060402 75.12109375 127.953125 C74.32319931 127.15634338 73.52530487 126.35956177 72.70323181 125.53863525 C71.60187645 124.44684967 71.60187645 124.44684967 70.47827148 123.33300781 C69.82922348 122.68777161 69.18017548 122.0425354 68.51145935 121.37774658 C65.00770012 118.18395092 62.39358076 123.42176497 59.8125 126 Z M146.39915466 121.48059082 C145.36323936 122.51983704 145.36323936 122.51983704 144.30639648 123.58007812 C143.52566269 124.36088745 142.74492889 125.14169678 141.9405365 125.94616699 C141.09262039 126.79924438 140.24470428 127.65232178 139.37109375 128.53125 C138.50686295 129.39689575 137.64263214 130.2625415 136.75221252 131.15441895 C134.45048766 133.46080783 132.15094415 135.76934356 129.85241699 138.07891846 C127.50823119 140.43331747 125.16118574 142.78485824 122.81445312 145.13671875 C118.20701889 149.75520959 113.60244717 154.3765397 109 159 C110.65379405 162.50922753 112.55339065 164.79843016 115.31640625 167.546875 C116.16267578 168.39121094 117.00894531 169.23554688 117.88085938 170.10546875 C118.76580078 170.97816406 119.65074219 171.85085938 120.5625 172.75 C121.45130859 173.63816406 122.34011719 174.52632812 123.25585938 175.44140625 C126.68368839 179.60111572 126.68368839 179.60111572 131 182 C131 168.14 131 154.28 131 140 C143.21 140 155.42 140 168 140 C163.41796421 134.59494815 163.41796421 134.59494815 158.60546875 129.47265625 C158.04279297 128.90869141 157.48011719 128.34472656 156.90039062 127.76367188 C156.33513672 127.20228516 155.76988281 126.64089844 155.1875 126.0625 C154.60291016 125.47404297 154.01832031 124.88558594 153.41601562 124.27929688 C150.20893521 120.06442775 150.20893521 120.06442775 146.39915466 121.48059082 Z M144 153 C143.77630053 158.95881843 143.61364929 164.91515786 143.50561523 170.87719727 C143.46055408 172.9017192 143.39928233 174.92595147 143.32104492 176.94946289 C142.41529572 190.09029622 142.41529572 190.09029622 147.21875 201.84375 C154.68172519 207.53497677 165.20154283 205.92249289 174.0625 205.5625 C175.99665156 205.51730122 177.93090465 205.47624611 179.86523438 205.43945312 C184.57935047 205.34081634 189.28854869 205.1858404 194 205 C194.29955124 199.52358887 194.51565289 194.05205946 194.65917969 188.56933594 C194.71906172 186.71041737 194.80061099 184.8520528 194.90527344 182.99511719 C195.66642203 170.4662126 195.66642203 170.4662126 190.65808105 159.32629395 C186.10757716 154.44867655 181.64660949 152.42783394 175.01593018 151.89532471 C170.74269245 151.7804746 166.51460877 151.99623024 162.25 152.25 C160.47414069 152.31031955 158.69808234 152.36505016 156.921875 152.4140625 C152.6095862 152.54506796 148.30703772 152.75129631 144 153 Z M23.80541992 161.27661133 C19.64113693 168.55101946 20.89879509 177.64260708 21.3125 185.6875 C21.36777177 187.56430876 21.4179452 189.44127494 21.46289062 191.31835938 C21.58317454 195.88284455 21.77238088 200.43965891 22 205 C27.53155345 205.22386432 33.06042792 205.38641927 38.59545898 205.49438477 C40.47450729 205.53941994 42.35324416 205.60067268 44.23120117 205.67895508 C56.65650844 206.48587907 56.65650844 206.48587907 67.75 201.8125 C73.63094186 194.26468357 71.91974244 183.45393977 71.5625 174.4375 C71.51730344 172.45516904 71.47624794 170.47273908 71.43945312 168.49023438 C71.34079509 163.65769294 71.18580372 158.82994389 71 154 C65.79005345 153.72554986 60.58441005 153.52737224 55.36889648 153.39575195 C53.60024666 153.34083894 51.83208681 153.26606988 50.06518555 153.17016602 C39.38851864 152.60569423 31.07672364 152.49850711 23.80541992 161.27661133 Z " fill="#2793CB" transform="translate(140,107)"/>
<path d="M0 0 C0.9075 0.7425 1.815 1.485 2.75 2.25 C3.4107251 2.78753906 4.0714502 3.32507813 4.75219727 3.87890625 C7 6 7 6 9.16772461 8.96484375 C12.55844083 13.44058745 15.96220207 17.27254031 21.59515381 18.62145996 C28.9784121 19.44506149 36.40640258 19.06565736 43.8125 18.75 C47.15551958 18.62987418 50.49522665 18.52825668 53.8400116 18.47515869 C55.9090578 18.44048477 57.97793663 18.36707997 60.04389954 18.2489624 C66.86791191 18.10899913 66.86791191 18.10899913 69.96604919 20.54736328 C71.7687706 22.62197971 73.37301613 24.78583342 75 27 C76.21895372 28.30579689 77.46358189 29.58807907 78.73217773 30.84570312 C79.37231308 31.48576294 80.01244843 32.12582275 80.67198181 32.78527832 C81.33581375 33.44394897 81.99964569 34.10261963 82.68359375 34.78125 C83.38396255 35.48020386 84.08433136 36.17915771 84.80592346 36.89929199 C87.01408458 39.10191539 89.22572037 41.30101081 91.4375 43.5 C92.94749814 45.00497508 94.4572659 46.51018135 95.96679688 48.015625 C99.64187641 51.67975829 103.32007356 55.3407348 107 59 C111.53507517 55.37066318 115.07253962 51.83396973 118.47024536 47.13690186 C127.83170799 34.30957979 138.91688577 20.13809442 155.37011719 17.41601562 C172.47459424 15.61890178 189.97295315 17.06291795 207 19 C208.22482117 28.14033211 209.03849306 37.29123987 209.5 46.5 C209.53424072 47.17839432 209.56848145 47.85678864 209.60375977 48.55574036 C210.34271638 65.13238456 209.43344463 78.75791319 198.09375 91.890625 C188.75347058 101.99727531 178.08023829 110.86573343 167 119 C164.03304621 117.57046772 161.72203034 116.06179607 159.25 113.875 C158.63640625 113.33617187 158.0228125 112.79734375 157.390625 112.2421875 C156.93171875 111.83226562 156.4728125 111.42234375 156 111 C160.44871123 105.66154653 165.04484809 100.95515191 170 96 C151.19 95.505 151.19 95.505 132 95 C131.67 82.46 131.34 69.92 131 57 C124.96631421 62.27947507 119.36693007 67.60244604 113.9375 73.453125 C113.35484375 74.05640625 112.7721875 74.6596875 112.171875 75.28125 C111.6572168 75.82845703 111.14255859 76.37566406 110.61230469 76.93945312 C109 78 109 78 107.11328125 77.96313477 C104.13215977 76.60447901 102.30836238 74.64327145 100.015625 72.30859375 C98.75153809 71.03326782 98.75153809 71.03326782 97.46191406 69.73217773 C96.40198242 68.64493408 95.34205078 67.55769043 94.25 66.4375 C90.8675 62.993125 87.485 59.54875 84 56 C83.67 69.2 83.34 82.4 83 96 C70.79 96.33 58.58 96.66 46 97 C52.93 103.93 59.86 110.86 67 118 C63.03448276 124.6091954 63.03448276 124.6091954 60 127 C54.44601547 126.30811065 50.84305501 121.52522924 47.0625 117.75683594 C42.58121466 113.31443778 38.06747552 109.20239416 33.12976074 105.27937317 C8.74510097 85.71095524 8.74510097 85.71095524 6.83056641 73.60595703 C6.24297597 66.86016949 6.56095864 60.17221666 7.0005188 53.42749023 C8.27139496 39.72846827 8.27139496 39.72846827 2.6015625 27.74609375 C-1.90996009 22.71449363 -7.28339174 18.57335942 -13 15 C-11.16307611 10.99625569 -8.50882084 8.28042066 -5.375 5.25 C-4.859375 4.74339844 -4.34375 4.23679687 -3.8125 3.71484375 C-2.54616661 2.47196098 -1.2736856 1.23534724 0 0 Z M22 33 C21.7761934 38.67397543 21.61360464 44.345342 21.50561523 50.02270508 C21.46057098 51.95024401 21.3993116 53.87747912 21.32104492 55.80395508 C20.47612053 68.48257865 20.47612053 68.48257865 25.25 79.78125 C32.60677538 85.47272357 42.78563866 83.92836235 51.5625 83.5625 C53.44847204 83.51729888 55.33454828 83.47624418 57.22070312 83.43945312 C61.81639731 83.34083861 66.40704142 83.18587899 71 83 C71.2238066 77.32602457 71.38639536 71.654658 71.49438477 65.97729492 C71.53942902 64.04975599 71.6006884 62.12252088 71.67895508 60.19604492 C72.52387947 47.51742135 72.52387947 47.51742135 67.75 36.21875 C60.39322462 30.52727643 50.21436134 32.07163765 41.4375 32.4375 C39.55152796 32.48270112 37.66545172 32.52375582 35.77929688 32.56054688 C31.18360269 32.65916139 26.59295858 32.81412101 22 33 Z M146.32055664 38.72631836 C143.26283681 46.30645613 144.1031004 54.54041494 144.4375 62.5625 C144.48270112 64.44847204 144.52375582 66.33454828 144.56054688 68.22070312 C144.65916139 72.81639731 144.81412101 77.40704142 145 82 C150.53155345 82.22386432 156.06042792 82.38641927 161.59545898 82.49438477 C163.47450729 82.53941994 165.35324416 82.60067268 167.23120117 82.67895508 C179.6741371 83.49165041 179.6741371 83.49165041 190.75 78.75 C196.47931773 71.39678354 194.92898856 61.22938382 194.5625 52.4375 C194.51729888 50.55152796 194.47624418 48.66545172 194.43945312 46.77929688 C194.34083861 42.18360269 194.18587899 37.59295858 194 33 C188.46844655 32.77613568 182.93957208 32.61358073 177.40454102 32.50561523 C175.52549271 32.46058006 173.64675584 32.39932732 171.76879883 32.32104492 C157.56382808 31.33433865 157.56382808 31.33433865 146.32055664 38.72631836 Z " fill="#B20202" transform="translate(140,107)"/>
<path d="M0 0 C2.50265014 1.15287719 4.01071506 2.56736106 5.95109558 4.52714539 C6.71158203 5.28785843 7.47206848 6.04857147 8.25559998 6.83233643 C9.06615845 7.65837875 9.87671692 8.48442108 10.71183777 9.335495 C11.96852264 10.59854713 11.96852264 10.59854713 13.25059509 11.88711548 C15.92708109 14.58040558 18.59295333 17.28393534 21.25871277 19.98783875 C23.07052375 21.81469423 24.88301551 23.6408748 26.69621277 25.46635437 C31.14164457 29.94487852 35.57840438 34.4318562 40.00871277 38.92533875 C42.31871277 36.94533875 44.62871277 34.96533875 47.00871277 32.92533875 C47.66871277 33.25533875 48.32871277 33.58533875 49.00871277 33.92533875 C47.88992894 35.09796778 46.76348226 36.26329012 45.63371277 37.42533875 C45.00722839 38.07502625 44.38074402 38.72471375 43.73527527 39.39408875 C42.00871277 40.92533875 42.00871277 40.92533875 40.00871277 40.92533875 C39.75213898 41.50559311 39.49556519 42.08584747 39.23121643 42.6836853 C37.89268962 45.13808551 36.40744959 46.80047445 34.44865417 48.79179382 C33.72094818 49.53548721 32.99324219 50.2791806 32.2434845 51.04541016 C31.45702545 51.8372319 30.67056641 52.62905365 29.86027527 53.44487 C28.64686966 54.67181831 28.64686966 54.67181831 27.40895081 55.92355347 C25.69852925 57.64847187 23.98529097 59.37060112 22.26945496 61.09013367 C19.63843327 63.73309682 17.02663522 66.39413101 14.41496277 69.05619812 C12.75205176 70.72856784 11.08802662 72.39983064 9.42277527 74.06987 C8.24915939 75.27278435 8.24915939 75.27278435 7.05183411 76.5 C5.95081863 77.59189888 5.95081863 77.59189888 4.82756042 78.70585632 C4.18517426 79.35331314 3.54278809 80.00076996 2.88093567 80.66784668 C1.00871277 81.92533875 1.00871277 81.92533875 -0.97782898 81.85740662 C-3.51648944 80.68221272 -5.05513999 79.22125366 -7.02546692 77.23173523 C-7.80597412 76.45100143 -8.58648132 75.67026764 -9.39064026 74.86587524 C-10.22307251 74.01795914 -11.05550476 73.17004303 -11.91316223 72.2964325 C-12.77314819 71.43220169 -13.63313416 70.56797089 -14.5191803 69.67755127 C-17.26699298 66.91293263 -20.00419759 64.13807013 -22.74128723 61.36283875 C-24.60127548 59.48780623 -26.4619443 57.61344856 -28.32331848 55.73979187 C-32.88723696 51.14277857 -37.44248661 46.53730919 -41.99128723 41.92533875 C-40.06661921 38.51467454 -38.06157228 35.73494512 -35.31770325 32.94535828 C-34.59007278 32.20174042 -33.86244232 31.45812256 -33.11276245 30.69197083 C-32.33146469 29.90531036 -31.55016693 29.1186499 -30.74519348 28.30815125 C-29.93767136 27.49160065 -29.13014923 26.67505005 -28.29815674 25.83375549 C-26.5937019 24.11482307 -24.88644723 22.39866297 -23.17658997 20.68510437 C-20.55444836 18.05100289 -17.95153677 15.39882136 -15.34870911 12.74565125 C-13.69035453 11.07783968 -12.0308871 9.41113376 -10.37019348 7.74565125 C-9.59091995 6.9468454 -8.81164642 6.14803955 -8.00875854 5.32502747 C-7.27797592 4.60032257 -6.5471933 3.87561768 -5.79426575 3.12895203 C-4.8352108 2.16229111 -4.8352108 2.16229111 -3.85678101 1.17610168 C-1.99128723 -0.07466125 -1.99128723 -0.07466125 0 0 Z " fill="#1C2F7C" transform="translate(247.9912872314453,185.0746612548828)"/>
<path d="M0 0 C2.96695379 1.42953228 5.27796966 2.93820393 7.75 5.125 C8.67039062 5.93324219 8.67039062 5.93324219 9.609375 6.7578125 C10.29773438 7.37269531 10.29773438 7.37269531 11 8 C10.10959463 9.23310435 9.21234296 10.46126564 8.3125 11.6875 C7.81363281 12.37199219 7.31476563 13.05648437 6.80078125 13.76171875 C4.72550871 16.34117898 2.34097963 18.65902037 0 21 C11.55 21.33 23.1 21.66 35 22 C35.25412372 28.07073342 35.47236623 34.12274109 35.60424805 40.19458008 C35.65924055 42.25413797 35.73406801 44.31327283 35.82983398 46.37133789 C36.64757845 64.40981875 36.64757845 64.40981875 32.53759766 69.87255859 C29.98459191 72.66338046 27.17782372 74.93849754 24 77 C23.67 77 23.34 77 23 77 C23 63.14 23 49.28 23 35 C16.93625 34.95875 10.8725 34.9175 4.625 34.875 C1.78575928 34.81675049 1.78575928 34.81675049 -1.11083984 34.75732422 C-8.58648585 34.73831209 -15.1077393 34.9107264 -21.15625 39.78125 C-27.4148426 47.45832914 -26.30732684 57.24765056 -26.125 66.625 C-26.08375 73.01875 -26.0425 79.4125 -26 86 C-12.8 86 0.4 86 14 86 C13.01 87.65 12.02 89.3 11 91 C11.48210937 91.48210937 11.96421875 91.96421875 12.4609375 92.4609375 C14.97395833 94.97395833 17.48697917 97.48697917 20 100 C0.2 100 -19.6 100 -40 100 C-45.00884584 44.90269579 -45.00884584 44.90269579 -33.67614746 30.10009766 C-23.81486237 18.6795595 -12.14094559 8.91295704 0 0 Z " fill="#2793CB" transform="translate(188,226)"/>
<path d="M0 0 C5.80891746 4.81867247 11.13065552 10.01256408 16.4375 15.375 C17.26443359 16.20644531 18.09136719 17.03789062 18.94335938 17.89453125 C20.96455531 19.9274104 22.98336335 21.96259963 25 24 C22.9792094 28.25509871 20.69619142 30.10732846 17 33 C14.69 31.02 12.38 29.04 10 27 C10 34.26 10 41.52 10 49 C11.98 47.35 13.96 45.7 16 44 C18.64 46.64 21.28 49.28 24 52 C19.18132753 57.80891746 13.98743592 63.13065552 8.625 68.4375 C7.37783203 69.67790039 7.37783203 69.67790039 6.10546875 70.94335938 C4.0725896 72.96455531 2.03740037 74.98336335 0 77 C-3.43930583 75.51873643 -5.66954338 73.57572554 -8.30078125 70.9296875 C-9.11353516 70.115 -9.92628906 69.3003125 -10.76367188 68.4609375 C-11.60478516 67.60757813 -12.44589844 66.75421875 -13.3125 65.875 C-14.14201172 65.04484375 -14.97152344 64.2146875 -15.82617188 63.359375 C-20.20394396 58.95050587 -24.4183388 54.46014825 -28.4699707 49.75048828 C-30.5269278 47.39714819 -32.71090299 45.19234167 -34.9375 43 C-35.70964844 42.236875 -36.48179688 41.47375 -37.27734375 40.6875 C-37.84582031 40.130625 -38.41429688 39.57375 -39 39 C-34.89931917 34.11408242 -30.6517944 29.49195855 -26.125 25 C-25.50713623 24.38406982 -24.88927246 23.76813965 -24.25268555 23.13354492 C-20.62343026 19.53862236 -16.92168051 16.09542383 -13.01953125 12.796875 C-8.47415431 8.75263247 -4.26513555 4.33569846 0 0 Z M-3.265625 20.81640625 C-3.90886719 21.41646484 -4.55210937 22.01652344 -5.21484375 22.63476562 C-5.88644531 23.27091797 -6.55804688 23.90707031 -7.25 24.5625 C-7.90613281 25.17158203 -8.56226563 25.78066406 -9.23828125 26.40820312 C-13.47025554 30.38356664 -17.29483722 34.52964056 -21 39 C-14.46666039 46.14311797 -7.91342994 53.21952064 -1 60 C1.31 58.02 3.62 56.04 6 54 C3.51099435 49.0219887 0.08447239 46.16701243 -3.98046875 42.4375 C-4.64691406 41.633125 -5.31335938 40.82875 -6 40 C-5.66897578 36.8072436 -4.544429 35.17986808 -2.27734375 32.984375 C-1.73916016 32.45585937 -1.20097656 31.92734375 -0.64648438 31.3828125 C-0.08251953 30.84398437 0.48144531 30.30515625 1.0625 29.75 C1.63033203 29.19570312 2.19816406 28.64140625 2.78320312 28.0703125 C4.18212469 26.70665786 5.59019114 25.35239583 7 24 C5.38405168 21.95880212 3.7143618 19.95927063 2 18 C-0.71176645 18 -1.3038224 18.98246432 -3.265625 20.81640625 Z " fill="#930202" transform="translate(141,187)"/>
<path d="M0 0 C3.13738154 1.39080525 5.25475281 3.01022204 7.66699219 5.43994141 C8.71762848 6.49080429 8.71762848 6.49080429 9.78948975 7.56289673 C10.53442688 8.31815643 11.27936401 9.07341614 12.046875 9.8515625 C12.81807678 10.62559418 13.58927856 11.39962585 14.3838501 12.19711304 C16.84396856 14.66841923 19.29703848 17.14659183 21.75 19.625 C23.41750894 21.30254052 25.08547232 22.97962945 26.75390625 24.65625 C30.8412237 28.76560919 34.92277696 32.88062647 39 37 C37.60919475 40.13738154 35.98977796 42.25475281 33.56005859 44.66699219 C32.85948334 45.36741638 32.15890808 46.06784058 31.43710327 46.78948975 C30.68184357 47.53442688 29.92658386 48.27936401 29.1484375 49.046875 C28.37440582 49.81807678 27.60037415 50.58927856 26.80288696 51.3838501 C24.33158077 53.84396856 21.85340817 56.29703848 19.375 58.75 C17.69745948 60.41750894 16.02037055 62.08547232 14.34375 63.75390625 C10.23439081 67.8412237 6.11937353 71.92277696 2 76 C-1.25921148 74.45240057 -3.40439302 72.82034515 -5.93359375 70.2265625 C-6.66513672 69.4840625 -7.39667969 68.7415625 -8.15039062 67.9765625 C-8.90513672 67.20054687 -9.65988281 66.42453125 -10.4375 65.625 C-16.88922309 58.94960962 -16.88922309 58.94960962 -24 53 C-22.44499019 49.18315774 -19.96404505 46.80804268 -17 44 C-13.33759908 45.56960039 -12.06096354 46.93903646 -9 50 C-9 42.41 -9 34.82 -9 27 C-11.31 28.98 -13.62 30.96 -16 33 C-18.64 30.36 -21.28 27.72 -24 25 C-19.18132753 19.19108254 -13.98743592 13.86934448 -8.625 8.5625 C-7.79355469 7.73556641 -6.96210938 6.90863281 -6.10546875 6.05664062 C-4.0725896 4.03544469 -2.03740037 2.01663665 0 0 Z M-2.5625 19.5 C-3.7690625 20.7375 -3.7690625 20.7375 -5 22 C-3.00333635 26.98588841 1.1056933 30.00746127 4.98046875 33.5625 C5.64691406 34.366875 6.31335938 35.17125 7 36 C6.66897578 39.1927564 5.544429 40.82013192 3.27734375 43.015625 C2.73916016 43.54414063 2.20097656 44.07265625 1.64648438 44.6171875 C1.08251953 45.15601563 0.51855469 45.69484375 -0.0625 46.25 C-0.63033203 46.80429688 -1.19816406 47.35859375 -1.78320312 47.9296875 C-3.18212469 49.29334214 -4.59019114 50.64760417 -6 52 C-5.05847053 55.84782275 -5.05847053 55.84782275 1 59 C7.6 52.4 14.2 45.8 21 39 C19.16507958 35.33015916 17.74454315 33.49823436 14.90234375 30.671875 C14.10119141 29.87265625 13.30003906 29.0734375 12.47460938 28.25 C11.63736328 27.425 10.80011719 26.6 9.9375 25.75 C9.09638672 24.90953125 8.25527344 24.0690625 7.38867188 23.203125 C2.75349989 17.15104025 2.75349989 17.15104025 -2.5625 19.5 Z " fill="#0096B2" transform="translate(354,188)"/>
<path d="M0 0 C3.50859286 1.75429643 5.18158448 2.93625287 7.85058594 5.62353516 C8.59105164 6.36415192 9.33151733 7.10476868 10.09442139 7.86782837 C10.88310608 8.66683563 11.67179077 9.4658429 12.484375 10.2890625 C13.29996887 11.10748627 14.11556274 11.92591003 14.95587158 12.76913452 C17.55864562 15.38309973 20.15437762 18.00393505 22.75 20.625 C24.5138634 22.39889454 26.2781809 24.17233766 28.04296875 25.9453125 C32.36726136 30.29165142 36.6857933 34.64365081 41 39 C46.22948744 34.62970634 51.10289955 30.03088196 55.90234375 25.1953125 C56.6249086 24.4713327 57.34747345 23.74735291 58.0919342 23.00143433 C60.37616922 20.71164735 62.65688312 18.41839007 64.9375 16.125 C66.49521039 14.56226839 68.05315087 12.9997661 69.61132812 11.4375 C73.41021602 7.6276469 77.20622713 3.81494621 81 0 C85.26615504 2.04066983 87.73398524 4.58553002 91 8 C87.40997292 15.77839202 80.67617772 21.39414493 74.35205078 26.96704102 C71.8159458 29.22501676 69.49272861 31.52366883 67.34765625 34.1484375 C65.48432089 36.41172338 63.81333696 38.1702203 61.5625 40 C58.71538438 42.39527892 56.08538292 44.91178637 53.51171875 47.59375 C52.89288818 48.23441406 52.27405762 48.87507813 51.63647461 49.53515625 C50.38846477 50.83501171 49.15075125 52.14483941 47.92407227 53.46484375 C47.34584717 54.06425781 46.76762207 54.66367188 46.171875 55.28125 C45.6572168 55.82845703 45.14255859 56.37566406 44.61230469 56.93945312 C43 58 43 58 41.11157227 57.95922852 C38.14807117 56.61299244 36.33016073 54.68325178 34.04296875 52.37109375 C33.57691727 51.9031691 33.11086578 51.43524445 32.63069153 50.95314026 C31.64471718 49.96045082 30.66234372 48.96417365 29.68334961 47.96459961 C28.20982521 46.46029161 26.72625522 44.96656343 25.24023438 43.47460938 C21.12074668 39.32042405 17.05938609 35.14394706 13.25 30.69921875 C9.50153933 26.32909495 5.28989102 22.5688821 0.98632812 18.7578125 C-2.68285336 15.43903583 -5.43548867 12.23812542 -8 8 C-5.36 5.36 -2.72 2.72 0 0 Z " fill="#930303" transform="translate(206,127)"/>
<path d="M0 0 C2.98514503 1.3229581 4.78781568 3.25154515 7.08178711 5.57055664 C7.78086433 6.27244362 7.78086433 6.27244362 8.49406433 6.98851013 C9.48003868 7.98119957 10.46241214 8.97747674 11.44140625 9.97705078 C12.91493065 11.48135879 14.39850064 12.97508697 15.88452148 14.46704102 C20.62188043 19.24429424 25.19809624 24.11047277 29.58007812 29.21875 C31.94028633 31.85127558 34.52564253 34.11317707 37.18725586 36.44165039 C41.82858922 40.57411642 45.62976237 44.79624331 49.12475586 49.94165039 C46.48475586 52.58165039 43.84475586 55.22165039 41.12475586 57.94165039 C37.616163 56.18735396 35.94317138 55.00539752 33.27416992 52.31811523 C32.53370422 51.57749847 31.79323853 50.83688171 31.03033447 50.07382202 C29.84730743 48.87531113 29.84730743 48.87531113 28.64038086 47.65258789 C27.82478699 46.83416412 27.00919312 46.01574036 26.16888428 45.17251587 C23.56611024 42.55855066 20.97037824 39.93771534 18.37475586 37.31665039 C16.61089246 35.54275585 14.84657496 33.76931273 13.08178711 31.99633789 C8.75749449 27.64999897 4.43896256 23.29799958 0.12475586 18.94165039 C-5.10473158 23.31194405 -9.97814369 27.91076843 -14.77758789 32.74633789 C-15.50015274 33.47031769 -16.22271759 34.19429749 -16.96717834 34.94021606 C-19.25141336 37.23000304 -21.53212727 39.52326033 -23.81274414 41.81665039 C-25.37045453 43.379382 -26.92839501 44.94188429 -28.48657227 46.50415039 C-32.28546016 50.31400349 -36.08147127 54.12670418 -39.87524414 57.94165039 C-43.05007791 56.44592546 -44.89760949 55.05056564 -47.12524414 52.31665039 C-47.64602539 51.68500977 -48.16680664 51.05336914 -48.70336914 50.40258789 C-49.09008789 49.92047852 -49.47680664 49.43836914 -49.87524414 48.94165039 C-38.3438848 36.16106046 -38.3438848 36.16106046 -34.00024414 32.56665039 C-30.08997323 29.29462618 -26.70082242 25.62057119 -23.25024414 21.87915039 C-18.29190776 16.52624786 -13.3289503 11.18087107 -8.25024414 5.94165039 C-7.67064941 5.32410889 -7.09105469 4.70656738 -6.49389648 4.0703125 C-2.4299704 -0.07561033 -2.4299704 -0.07561033 0 0 Z " fill="#0096B2" transform="translate(247.875244140625,267.058349609375)"/>
<path d="M0 0 C8.58 0 17.16 0 26 0 C25 7 25 7 23 9 C19.9609375 9.1953125 19.9609375 9.1953125 16.375 9.125 C15.18648437 9.10695313 13.99796875 9.08890625 12.7734375 9.0703125 C11.85820313 9.04710937 10.94296875 9.02390625 10 9 C10 10.65 10 12.3 10 14 C12.64 14 15.28 14 18 14 C18 16.97 18 19.94 18 23 C15.36 23 12.72 23 10 23 C10 23.99 10 24.98 10 26 C15.28 26 20.56 26 26 26 C26 25.34 26 24.68 26 24 C29.3 24 32.6 24 36 24 C36 24.66 36 25.32 36 26 C37.98 26 39.96 26 42 26 C42 25.01 42 24.02 42 23 C41.33613281 23.04640625 40.67226562 23.0928125 39.98828125 23.140625 C32.73833404 23.43697321 32.73833404 23.43697321 28.9375 21.1875 C25.65449325 17.48087947 25.72361559 13.94305892 25.77734375 9.22265625 C26.08203544 6.18108486 27.07706987 4.35024793 29 2 C32.15314785 -0.10209857 32.86103081 -0.2434761 36.44921875 -0.1953125 C37.72055664 -0.18564453 37.72055664 -0.18564453 39.01757812 -0.17578125 C40.33918945 -0.15064453 40.33918945 -0.15064453 41.6875 -0.125 C43.02651367 -0.11146484 43.02651367 -0.11146484 44.39257812 -0.09765625 C46.59516666 -0.07409915 48.79761725 -0.03822844 51 0 C51 3.96 51 7.92 51 12 C48.03 12 45.06 12 42 12 C42 11.01 42 10.02 42 9 C40.02 9 38.04 9 36 9 C36 10.65 36 12.3 36 14 C40.95 14 45.9 14 51 14 C51.10812003 16.75105422 51.18734945 19.49785087 51.25 22.25 C51.30027344 23.41595703 51.30027344 23.41595703 51.3515625 24.60546875 C51.36445313 25.35957031 51.37734375 26.11367188 51.390625 26.890625 C51.41157227 27.58188477 51.43251953 28.27314453 51.45410156 28.98535156 C50.72760052 32.20851639 49.76702525 33.14918119 47 35 C43.44010541 35.55752583 39.92346372 35.46430439 36.328125 35.390625 C35.29057068 35.38496521 34.25301636 35.37930542 33.184021 35.37347412 C29.87221008 35.35109491 26.56148356 35.30089419 23.25 35.25 C21.00392188 35.22993706 18.75782679 35.21168594 16.51171875 35.1953125 C11.00705929 35.15462766 5.50474243 35.07633695 0 35 C0 23.45 0 11.9 0 0 Z " fill="#930303" transform="translate(95,399)"/>
<path d="M0 0 C2.866875 -0.103125 5.73375 -0.20625 8.6875 -0.3125 C10.02880981 -0.38078003 10.02880981 -0.38078003 11.3972168 -0.45043945 C15.58644437 -0.52325882 17.51567688 -0.33401594 21.05859375 2.109375 C23.39288713 5.58498285 23.55762462 7.41499867 23.375 11.5625 C23.34148437 12.67753906 23.30796875 13.79257812 23.2734375 14.94140625 C23 18 23 18 22 22 C23.32 24.97 24.64 27.94 26 31 C26.33 20.77 26.66 10.54 27 0 C35.58 0 44.16 0 53 0 C52 7 52 7 50 9 C46.9609375 9.1953125 46.9609375 9.1953125 43.375 9.125 C42.18648438 9.10695313 40.99796875 9.08890625 39.7734375 9.0703125 C38.85820312 9.04710937 37.94296875 9.02390625 37 9 C37 10.65 37 12.3 37 14 C39.64 14 42.28 14 45 14 C45 16.97 45 19.94 45 23 C42.36 23 39.72 23 37 23 C37 23.99 37 24.98 37 26 C42.28 26 47.56 26 53 26 C53 28.97 53 31.94 53 35 C41.12 35 29.24 35 17 35 C15.35 31.37 13.7 27.74 12 24 C11.34 23.67 10.68 23.34 10 23 C10 26.96 10 30.92 10 35 C6.7 35 3.4 35 0 35 C0 23.45 0 11.9 0 0 Z M10 9 C10 10.65 10 12.3 10 14 C11.32 14 12.64 14 14 14 C14 12.35 14 10.7 14 9 C12.68 9 11.36 9 10 9 Z " fill="#0097B2" transform="translate(292,399)"/>
<path d="M0 0 C4.62 0 9.24 0 14 0 C14 15.18 14 30.36 14 46 C27.2 46 40.4 46 54 46 C53.01 47.65 52.02 49.3 51 51 C51.48210937 51.48210937 51.96421875 51.96421875 52.4609375 52.4609375 C54.97395833 54.97395833 57.48697917 57.48697917 60 60 C40.2 60 20.4 60 0 60 C0 40.2 0 20.4 0 0 Z " fill="#2793CB" transform="translate(148,266)"/>
<path d="M0 0 C3.13738154 1.39080525 5.25475281 3.01022204 7.66699219 5.43994141 C8.71762848 6.49080429 8.71762848 6.49080429 9.78948975 7.56289673 C10.53442688 8.31815643 11.27936401 9.07341614 12.046875 9.8515625 C12.81807678 10.62559418 13.58927856 11.39962585 14.3838501 12.19711304 C16.84396856 14.66841923 19.29703848 17.14659183 21.75 19.625 C23.41750894 21.30254052 25.08547232 22.97962945 26.75390625 24.65625 C30.8412237 28.76560919 34.92277696 32.88062647 39 37 C38.0919838 38.13199353 37.17316174 39.25532363 36.25 40.375 C35.73953125 41.00148437 35.2290625 41.62796875 34.703125 42.2734375 C33 44 33 44 29 46 C20.09 37.09 11.18 28.18 2 19 C-2.0980916 21.0490458 -4.62433019 23.44811831 -7.71875 26.69921875 C-8.82639468 27.8370056 -9.93448086 28.97436276 -11.04296875 30.11132812 C-12.77961149 31.90392005 -14.5120604 33.70011477 -16.23681641 35.50415039 C-17.90727753 37.24692072 -19.59284832 38.97384902 -21.28125 40.69921875 C-21.79490112 41.24495041 -22.30855225 41.79068207 -22.83776855 42.35295105 C-24.31445312 43.8503418 -24.31445312 43.8503418 -27 46 C-30.41900337 45.87762786 -31.96540965 44.37785788 -34.25 41.9375 C-34.77078125 41.38964844 -35.2915625 40.84179688 -35.828125 40.27734375 C-36.21484375 39.85582031 -36.6015625 39.43429688 -37 39 C-35.60919475 35.86261846 -33.98977796 33.74524719 -31.56005859 31.33300781 C-30.85948334 30.63258362 -30.15890808 29.93215942 -29.43710327 29.21051025 C-28.68184357 28.46557312 -27.92658386 27.72063599 -27.1484375 26.953125 C-26.37440582 26.18192322 -25.60037415 25.41072144 -24.80288696 24.6161499 C-22.33158077 22.15603144 -19.85340817 19.70296152 -17.375 17.25 C-15.69745948 15.58249106 -14.02037055 13.91452768 -12.34375 12.24609375 C-8.23439081 8.1587763 -4.11937353 4.07722304 0 0 Z " fill="#B30202" transform="translate(247,85)"/>
<path d="M0 0 C6.55377097 5.38640924 12.47246635 11.35885127 18.4375 17.375 C19.46525983 18.40778595 20.49325285 19.44033991 21.52148438 20.47265625 C24.01701598 22.97910287 26.50938082 25.4886708 29 28 C35.55377097 22.61359076 41.47246635 16.64114873 47.4375 10.625 C48.46525983 9.59221405 49.49325285 8.55966009 50.52148438 7.52734375 C53.01701598 5.02089713 55.50938082 2.5113292 58 0 C62 2 62 2 68 9 C55.46 21.54 42.92 34.08 30 47 C25.80288226 43.40247051 21.84803645 39.97536973 17.96875 36.1015625 C17.07542969 35.20953125 16.18210938 34.3175 15.26171875 33.3984375 C14.35035156 32.48320312 13.43898437 31.56796875 12.5 30.625 C11.58863281 29.7175 10.67726562 28.81 9.73828125 27.875 C3.41547718 21.54307212 -2.62775382 15.1629949 -8 8 C-5.36 5.36 -2.72 2.72 0 0 Z " fill="#2893CC" transform="translate(217,319)"/>
<path d="M0 0 C5.26513041 -0.17400017 10.52856208 -0.3005091 15.79589844 -0.38452148 C17.58460669 -0.4195657 19.37311671 -0.46721801 21.16113281 -0.52807617 C37.94267576 -1.08465466 37.94267576 -1.08465466 42.90625 3.15234375 C44.44726562 4.89819336 44.44726562 4.89819336 46 7 C48.475 9.97 48.475 9.97 51 13 C38.46 13 25.92 13 13 13 C13 26.86 13 40.72 13 55 C9.3293276 52.79759656 7.09959316 51.35644167 4.25 48.4375 C3.65703125 47.83808594 3.0640625 47.23867188 2.453125 46.62109375 C0.08671993 43.98115261 -0.12361358 42.27584507 -0.11352539 38.82568359 C-0.11344986 37.96494232 -0.11337433 37.10420105 -0.11329651 36.21737671 C-0.10813522 35.28712677 -0.10297394 34.35687683 -0.09765625 33.3984375 C-0.0962413 32.44683746 -0.09482635 31.49523743 -0.09336853 30.51480103 C-0.08776012 27.46816903 -0.07520619 24.42160987 -0.0625 21.375 C-0.05748608 19.31250106 -0.05292299 17.25000097 -0.04882812 15.1875 C-0.03778796 10.12497183 -0.02051767 5.06249827 0 0 Z " fill="#2793CB" transform="translate(271,247)"/>
<path d="M0 0 C1.13199353 0.9080162 2.25532363 1.82683826 3.375 2.75 C4.00148437 3.26046875 4.62796875 3.7709375 5.2734375 4.296875 C7.09276893 6.09150963 7.92026058 7.70813932 9 10 C8.54149658 10.42297363 8.08299316 10.84594727 7.6105957 11.28173828 C5.5076886 13.22570011 3.41007963 15.17529152 1.3125 17.125 C0.59126953 17.79015625 -0.12996094 18.4553125 -0.87304688 19.140625 C-4.90253829 22.89412385 -8.58617915 26.67717359 -12 31 C-5.46888144 38.14068962 1.06342342 45.24703868 8 52 C7.06409496 53.1055189 6.12620142 54.20935453 5.1875 55.3125 C4.66542969 55.92738281 4.14335937 56.54226562 3.60546875 57.17578125 C2.12779563 58.85479182 0.58852905 60.42698772 -1 62 C-15.09927949 48.07671706 -15.09927949 48.07671706 -20.3359375 41.88671875 C-23.69767296 38.07517362 -27.37098859 34.55494995 -31 31 C-26.89931867 26.11408182 -22.65181765 21.49194328 -18.125 17 C-17.51293701 16.38987061 -16.90087402 15.77974121 -16.27026367 15.15112305 C-12.48287893 11.3998325 -8.63386422 7.76326949 -4.55078125 4.33203125 C-2.95203945 2.95880466 -1.47187149 1.50744542 0 0 Z " fill="#B20202" transform="translate(133,195)"/>
<path d="M0 0 C6.92810724 5.66574049 13.14204142 12.03033639 19.4375 18.375 C20.56161467 19.50413955 21.68596174 20.63304778 22.81054688 21.76171875 C25.54305235 24.50515188 28.27239009 27.25169985 31 30 C29.71977125 32.80969467 28.39285871 34.8539238 26.20263672 37.02441406 C25.64220673 37.58469299 25.08177673 38.14497192 24.50436401 38.722229 C23.90222076 39.31404968 23.30007751 39.90587036 22.6796875 40.515625 C22.06102814 41.13145447 21.44236877 41.74728394 20.80496216 42.3817749 C18.83296186 44.34260336 16.85411263 46.29635301 14.875 48.25 C13.53469836 49.58026799 12.19484917 50.910992 10.85546875 52.2421875 C7.57553411 55.5001015 4.28944058 58.75168533 1 62 C-2.30166782 58.79004518 -5.1019433 55.62257087 -8 52 C-1.4 45.4 5.2 38.8 12 32 C10.15623078 28.31246157 8.7350152 26.49931076 5.8671875 23.671875 C5.06152344 22.87265625 4.25585938 22.0734375 3.42578125 21.25 C2.16314453 20.0125 2.16314453 20.0125 0.875 18.75 C-0.39923828 17.48929688 -0.39923828 17.48929688 -1.69921875 16.203125 C-3.79504923 14.13084317 -5.89540713 12.06337607 -8 10 C-7.59007812 9.52949219 -7.18015625 9.05898437 -6.7578125 8.57421875 C-6.21898437 7.95160156 -5.68015625 7.32898438 -5.125 6.6875 C-4.59132813 6.07261719 -4.05765625 5.45773438 -3.5078125 4.82421875 C-1.8359553 2.86501788 -1.8359553 2.86501788 0 0 Z " fill="#2793CB" transform="translate(362,195)"/>
<path d="M0 0 C8.48514225 3.94614694 14.55126613 11.58447035 20.72412109 18.4050293 C24.24982118 22.26581658 27.92884425 25.74343165 31.8984375 29.14306641 C35.77055199 32.56445382 39.36822842 36.26481592 43 39.9375 C43.77472656 40.71673828 44.54945313 41.49597656 45.34765625 42.29882812 C47.23410757 44.1969242 49.11816245 46.09733149 51 48 C48.96491848 51.47059228 47.19496893 54.48275175 44 57 C39.22050142 56.40933634 36.4410784 53.01763756 33.125 49.8125 C32.42262207 49.13993164 31.72024414 48.46736328 30.99658203 47.77441406 C28.85128193 45.70692278 26.71649218 43.62911261 24.58569336 41.54669189 C22.81151612 39.81615204 21.03181298 38.0913935 19.25195312 36.36669922 C15.80595302 33.023608 12.37646409 29.66421247 8.95599365 26.29501343 C7.56726883 24.93029955 6.1745488 23.56963945 4.77789307 22.21304321 C2.79536835 20.28427102 0.82962872 18.33980047 -1.1328125 16.390625 C-1.74030334 15.80574814 -2.34779419 15.22087128 -2.97369385 14.61827087 C-4.62939453 12.95410156 -4.62939453 12.95410156 -7 10 C-6.57068967 6.61669079 -5.40027414 5.05557579 -2.9375 2.75 C-2.38964844 2.22921875 -1.84179688 1.7084375 -1.27734375 1.171875 C-0.64505859 0.59179688 -0.64505859 0.59179688 0 0 Z " fill="#910404" transform="translate(156,177)"/>
<path d="M0 0 C1.12535156 -0.03867188 1.12535156 -0.03867188 2.2734375 -0.078125 C8.42644778 0.78043457 12.5304994 5.89231017 16.67578125 10.10546875 C17.33458786 10.76710526 17.99339447 11.42874176 18.67216492 12.11042786 C20.76537039 14.21478549 22.85149541 16.32600648 24.9375 18.4375 C26.35956369 19.86959988 27.78208479 21.30124572 29.20507812 22.73242188 C32.68370572 26.23304399 36.15600188 29.73983622 39.625 33.25 C37.58433017 37.51615504 35.03946998 39.98398524 31.625 43.25 C28.15870165 41.76346494 25.93477964 39.79277649 23.296875 37.1171875 C22.49765625 36.31152344 21.6984375 35.50585938 20.875 34.67578125 C20.05 33.83402344 19.225 32.99226563 18.375 32.125 C17.53453125 31.27550781 16.6940625 30.42601563 15.828125 29.55078125 C13.75584317 27.45495077 11.68837607 25.35459287 9.625 23.25 C8.84632568 23.57307129 8.06765137 23.89614258 7.26538086 24.22900391 C3.33477154 25.7489122 -0.22089998 25.85702518 -4.375 25.25 C-8.1776029 23.2449912 -9.99290841 21.82313738 -12.375 18.25 C-13.61959404 13.58277234 -13.34331534 10.65527719 -11.375 6.25 C-8.08475367 1.47383598 -5.74050558 0.11755302 0 0 Z M-3.0625 9.75 C-3.495625 10.245 -3.92875 10.74 -4.375 11.25 C-3.715 12.9 -3.055 14.55 -2.375 16.25 C-0.725 16.25 0.925 16.25 2.625 16.25 C3.285 14.6 3.945 12.95 4.625 11.25 C3.31298827 9.68750191 3.31298827 9.68750191 1.625 8.25 C-1.37759517 7.91781808 -1.37759517 7.91781808 -3.0625 9.75 Z " fill="#B30202" transform="translate(90.375,66.75)"/>
<path d="M0 0 C10.93786474 9.27340706 21.30179999 19.03612189 31.48120117 29.13110352 C32.96651098 30.59964874 34.45719064 32.0627804 35.95288086 33.52075195 C38.13040589 35.64389206 40.29136256 37.78267644 42.44921875 39.92578125 C43.12297043 40.57686356 43.79672211 41.22794586 44.4908905 41.89875793 C45.09935318 42.51007065 45.70781586 43.12138336 46.3347168 43.7512207 C47.14551949 44.54989311 47.14551949 44.54989311 47.97270203 45.36470032 C49 47 49 47 48.75471497 49.09660339 C47.84954841 51.37943999 46.72393059 52.5775969 44.9375 54.25 C44.11572266 55.03117187 44.11572266 55.03117187 43.27734375 55.828125 C42.85582031 56.21484375 42.43429687 56.6015625 42 57 C34.13936717 53.41471552 28.34639872 46.40818004 22.625 40.125 C17.82891872 34.93176081 12.97205552 30.0090558 7.62890625 25.37109375 C1.85355968 20.1621259 -3.53755847 14.53328011 -9 9 C-6 6 -3 3 0 0 Z " fill="#0096B1" transform="translate(297,218)"/>
<path d="M0 0 C3.196875 -0.0825 6.39375 -0.165 9.6875 -0.25 C10.68612061 -0.28641602 11.68474121 -0.32283203 12.71362305 -0.36035156 C16.89977441 -0.41265209 19.38469857 -0.35249208 23.08203125 1.765625 C26.39920129 5.63002676 26.1210838 9.33023361 26.09765625 14.296875 C26.09443359 15.50214844 26.09121094 16.70742188 26.08789062 17.94921875 C26.07951172 19.20347656 26.07113281 20.45773437 26.0625 21.75 C26.05798828 23.01972656 26.05347656 24.28945313 26.04882812 25.59765625 C26.03704556 28.73181836 26.02059416 31.86588541 26 35 C22.7 35 19.4 35 16 35 C16 31.04 16 27.08 16 23 C14.02 23 12.04 23 10 23 C10 26.96 10 30.92 10 35 C6.7 35 3.4 35 0 35 C0 23.45 0 11.9 0 0 Z M10 9 C10 10.65 10 12.3 10 14 C11.98 14 13.96 14 16 14 C16 12.35 16 10.7 16 9 C14.02 9 12.04 9 10 9 Z " fill="#0097B2" transform="translate(373,399)"/>
<path d="M0 0 C3.196875 -0.0825 6.39375 -0.165 9.6875 -0.25 C10.68612061 -0.28641602 11.68474121 -0.32283203 12.71362305 -0.36035156 C16.89977441 -0.41265209 19.38469857 -0.35249208 23.08203125 1.765625 C26.39920129 5.63002676 26.1210838 9.33023361 26.09765625 14.296875 C26.09443359 15.50214844 26.09121094 16.70742188 26.08789062 17.94921875 C26.07951172 19.20347656 26.07113281 20.45773437 26.0625 21.75 C26.05798828 23.01972656 26.05347656 24.28945313 26.04882812 25.59765625 C26.03704556 28.73181836 26.02059416 31.86588541 26 35 C22.7 35 19.4 35 16 35 C16 31.04 16 27.08 16 23 C14.02 23 12.04 23 10 23 C10 26.96 10 30.92 10 35 C6.7 35 3.4 35 0 35 C0 23.45 0 11.9 0 0 Z M10 9 C10 10.65 10 12.3 10 14 C11.98 14 13.96 14 16 14 C16 12.35 16 10.7 16 9 C14.02 9 12.04 9 10 9 Z " fill="#930303" transform="translate(171,399)"/>
<path d="M0 0 C8.02941176 1.14705882 8.02941176 1.14705882 12 6 C13.05287814 7.63377642 14.0727001 9.29181597 15 11 C15.33 7.37 15.66 3.74 16 0 C18.97 0 21.94 0 25 0 C25 11.55 25 23.1 25 35 C21.7 35 18.4 35 15 35 C13.35 31.37 11.7 27.74 10 24 C9.67 27.63 9.34 31.26 9 35 C6.03 35 3.06 35 0 35 C0 23.45 0 11.9 0 0 Z " fill="#0097B2" transform="translate(346,399)"/>
<path d="M0 0 C3.82792868 1.5595265 6.36359864 3.83631836 9 7 C8.73638739 10.65872765 6.93143994 12.43421788 4.39819336 14.94238281 C3.63748032 15.70286926 2.87676727 16.46335571 2.09300232 17.24688721 C1.26695999 18.05744568 0.44091766 18.86800415 -0.41015625 19.703125 C-1.25219101 20.54091492 -2.09422577 21.37870483 -2.96177673 22.24188232 C-5.65506683 24.91836832 -8.3585966 27.58424056 -11.0625 30.25 C-12.88935548 32.06181098 -14.71553605 33.87430274 -16.54101562 35.6875 C-21.01953977 40.1329318 -25.50651745 44.56969161 -30 49 C-32.96695379 47.57046772 -35.27796966 46.06179607 -37.75 43.875 C-38.36359375 43.33617187 -38.9771875 42.79734375 -39.609375 42.2421875 C-40.06828125 41.83226562 -40.5271875 41.42234375 -41 41 C-35.28379331 34.11123809 -29.19185494 27.62007158 -22.3125 21.875 C-17.44730178 17.72729566 -13.21860308 12.96371495 -8.9230957 8.24169922 C-6.12280259 5.18179438 -3.48152532 2.3095267 0 0 Z " fill="#920303" transform="translate(337,177)"/>
<path d="M0 0 C4.5478125 -0.12375 4.5478125 -0.12375 9.1875 -0.25 C10.60712036 -0.30462402 10.60712036 -0.30462402 12.05541992 -0.36035156 C16.21574001 -0.41511005 18.4337676 -0.35090458 22.05078125 1.890625 C25.35549391 5.46686716 25.118511 7.74247075 25.09765625 12.5390625 C25.09443359 13.84101563 25.09121094 15.14296875 25.08789062 16.484375 C25.07953466 17.86458399 25.07106971 19.24479232 25.0625 20.625 C25.05748501 22.01301926 25.0529221 23.40104022 25.04882812 24.7890625 C25.03700976 28.19275132 25.02053434 31.59635439 25 35 C21.7 35 18.4 35 15 35 C15 31.04 15 27.08 15 23 C13.02 23 11.04 23 9 23 C9 26.96 9 30.92 9 35 C6.03 35 3.06 35 0 35 C0 23.45 0 11.9 0 0 Z M9 9 C9 10.65 9 12.3 9 14 C10.98 14 12.96 14 15 14 C15 12.35 15 10.7 15 9 C13.02 9 11.04 9 9 9 Z " fill="#0097B2" transform="translate(265,399)"/>
<path d="M0 0 C2.0769043 -0.41235352 2.0769043 -0.41235352 5 0 C7.54645005 1.91639026 9.61907989 4.25522042 11.76953125 6.59765625 C13.08343846 7.96992395 14.39790921 9.34165225 15.71289062 10.71289062 C17.76866017 12.88662423 19.81657931 15.06688766 21.85375977 17.25805664 C23.82682251 19.37016471 25.8270175 21.45342112 27.83203125 23.53515625 C28.43126907 24.19653091 29.0305069 24.85790558 29.64790344 25.5393219 C32.81428575 28.94797349 32.81428575 28.94797349 37.12045288 30.10983276 C39.09310827 29.81572778 41.04869229 29.41263209 43 29 C46 30.8125 46 30.8125 48 33 C48 33.66 48 34.32 48 35 C48.556875 35.226875 49.11375 35.45375 49.6875 35.6875 C53.31799803 37.74805294 56.22600435 40.40647953 58.0625 44.1875 C59.27828157 46.53801104 60.66979756 46.87248269 63 48 C63.33 48.99 63.66 49.98 64 51 C62.741875 51.309375 61.48375 51.61875 60.1875 51.9375 C57.33850176 52.96616485 56.26743091 53.5086937 54.80078125 56.203125 C54.0736706 58.45894146 53.46747675 60.67722488 53 63 C49.20752477 61.24407595 46.89421996 59.03540142 44 56 C43.175 55.175 42.35 54.35 41.5 53.5 C40.675 52.675 39.85 51.85 39 51 C38.13375 50.154375 37.2675 49.30875 36.375 48.4375 C35.59125 47.633125 34.8075 46.82875 34 46 C33.38125 45.401875 32.7625 44.80375 32.125 44.1875 C31 42 31 42 31.86108398 38.34521484 C32.23512121 35.64680073 32.25603357 34.43140136 30.85159302 32.06500244 C29.02621192 30.0180356 27.11086896 28.15173676 25.09765625 26.2890625 C24.03012367 25.24774673 24.03012367 25.24774673 22.94102478 24.18539429 C20.66848058 21.97636236 18.36733259 19.8002774 16.0625 17.625 C13.76763295 15.42248413 11.4790904 13.21370001 9.19468689 11.00033569 C7.77204494 9.62595382 6.34213745 8.25904704 4.90455627 6.90029907 C4.26066452 6.2856076 3.61677277 5.67091614 2.95336914 5.03759766 C2.38187637 4.49769196 1.81038361 3.95778625 1.22157288 3.40151978 C0 2 0 2 0 0 Z " fill="#0096B2" transform="translate(324,325)"/>
<path d="M0 0 C4.90582342 4.0435335 9.36021847 8.33527189 13.7109375 12.96484375 C14.96735833 14.27282261 16.22521404 15.57942441 17.484375 16.88476562 C19.44162869 18.91618011 21.38984797 20.953396 23.31542969 23.01489258 C25.19499316 25.02187197 27.10513373 26.99495273 29.0234375 28.96484375 C29.87233047 29.89586159 29.87233047 29.89586159 30.7383728 30.84568787 C33.9708277 34.14382092 33.9708277 34.14382092 38.34063721 35.072052 C40.74758025 34.78513214 40.74758025 34.78513214 43.00796509 34.22340393 C45 34 45 34 47.75 36.125 C48.4925 37.07375 49.235 38.0225 50 39 C52.40038351 41.4603931 54.71182764 43.77832895 57.4375 45.875 C60.7134658 48.59165456 63.31341864 51.71332315 66 55 C62.66688525 56.7824918 59.75519057 57.48792856 56 58 C55.814375 59.6396875 55.814375 59.6396875 55.625 61.3125 C55 65 55 65 53 68 C51.62437146 66.71034824 50.29233607 65.37310707 49 64 C49 63.34 49 62.68 49 62 C48.360625 61.731875 47.72125 61.46375 47.0625 61.1875 C45 60 45 60 44 57 C43.360625 56.690625 42.72125 56.38125 42.0625 56.0625 C39.49948282 54.74215782 39.2592663 53.5185326 38 51 C37.34 50.690625 36.68 50.38125 36 50.0625 C34 49 34 49 32.6875 46.75 C32 44 32 44 32.90209961 41.30493164 C33.0164361 37.4451483 32.60532695 37.08273631 30.08422852 34.36889648 C28.69924762 33.01885067 27.29610135 31.68728289 25.87890625 30.37109375 C25.14502182 29.65897232 24.41113739 28.94685089 23.65501404 28.21315002 C21.30681707 25.93728204 18.93710749 23.68577558 16.5625 21.4375 C14.19326418 19.18402411 11.82967288 16.92573399 9.48069763 14.65113831 C8.01840404 13.23595955 6.54410628 11.83305997 5.05702209 10.44395447 C4.39310959 9.80301346 3.72919708 9.16207245 3.04516602 8.50170898 C2.45590836 7.94466782 1.8666507 7.38762665 1.25953674 6.81370544 C-0.38457323 4.44622294 -0.23520745 2.81911395 0 0 Z " fill="#0097B2" transform="translate(347,298)"/>
<path d="M0 0 C2.59145281 2.31379716 3.02271972 4.09786958 3.8125 7.5 C4.00215669 11.04025827 3.67287041 12.05471465 2 15 C1.36731201 14.9213269 0.73462402 14.84265381 0.08276367 14.76159668 C-3.67347165 14.49394861 -6.75204421 14.2792156 -10.08349609 16.20336914 C-12.08524809 17.96544526 -13.88763374 19.81339154 -15.6875 21.78125 C-16.35668457 22.46932739 -17.02586914 23.15740479 -17.71533203 23.86633301 C-19.83520484 26.05507315 -21.9179083 28.27534546 -24 30.5 C-26.11734733 32.71719051 -28.24170518 34.92733453 -30.37036133 37.13366699 C-31.68957265 38.50581707 -33.00087184 39.88562559 -34.3034668 41.27355957 C-35.18578979 42.20452454 -35.18578979 42.20452454 -36.0859375 43.15429688 C-36.6020459 43.70500854 -37.1181543 44.25572021 -37.64990234 44.82312012 C-39 46 -39 46 -41 46 C-41 46.66 -41 47.32 -41 48 C-43.1875 49.75 -43.1875 49.75 -46 51 C-48.98331735 50.37558474 -50.43507044 49.726338 -52.3125 47.3125 C-53.2670641 44.10169349 -53.24214879 41.32954593 -53 38 C-52.34 37.01 -51.68 36.02 -51 35 C-48.91052246 34.9672699 -48.91052246 34.9672699 -46.39648438 35.27514648 C-42.05213335 35.39277595 -40.03320069 34.78635087 -36.77539062 31.89477539 C-35.3765096 30.48762148 -34.0044279 29.05346071 -32.65625 27.59765625 C-31.92047729 26.8453624 -31.18470459 26.09306854 -30.42663574 25.31797791 C-28.09302279 22.9220382 -25.79646885 20.49401277 -23.5 18.0625 C-21.16744454 15.64279781 -18.82792278 13.2299898 -16.4876709 10.81773376 C-15.03686929 9.31685642 -13.59208833 7.81013164 -12.15393066 6.2971344 C-11.50565308 5.61650436 -10.85737549 4.93587433 -10.18945312 4.23461914 C-9.62005005 3.6328334 -9.05064697 3.03104767 -8.46398926 2.411026 C-5.79100214 -0.16525952 -3.6280078 -0.44243998 0 0 Z " fill="#B30202" transform="translate(154,85)"/>
<path d="M0 0 C8.25 0 16.5 0 25 0 C25 6 25 6 23.91796875 7.86328125 C21.04119912 9.56825062 18.61887901 9.28570928 15.3125 9.1875 C13.54326172 9.14689453 13.54326172 9.14689453 11.73828125 9.10546875 C10.83464844 9.07066406 9.93101562 9.03585937 9 9 C9 10.65 9 12.3 9 14 C11.97 14 14.94 14 18 14 C18 16.97 18 19.94 18 23 C15.03 23 12.06 23 9 23 C9 23.99 9 24.98 9 26 C14.28 26 19.56 26 25 26 C25 28.97 25 31.94 25 35 C16.75 35 8.5 35 0 35 C0 23.45 0 11.9 0 0 Z " fill="#930303" transform="translate(223,399)"/>
<path d="M0 0 C2.96695379 1.42953228 5.27796966 2.93820393 7.75 5.125 C8.67039062 5.93324219 8.67039062 5.93324219 9.609375 6.7578125 C10.29773438 7.37269531 10.29773438 7.37269531 11 8 C9.10766884 10.75964961 7.09573987 13.39166575 5 16 C4.46632812 16.68964844 3.93265625 17.37929687 3.3828125 18.08984375 C0.18664037 21.56301747 -2.35321671 23.13220587 -7.0703125 23.43359375 C-11.06514127 23.50801504 -15.01753268 23.30448476 -19 23 C-19 26.96 -19 30.92 -19 35 C-17.68 35.33 -16.36 35.66 -15 36 C-16.64281162 37.66964521 -18.28932761 39.3356464 -19.9375 41 C-20.85402344 41.928125 -21.77054688 42.85625 -22.71484375 43.8125 C-25 46 -25 46 -26 46 C-26 44.02 -26 42.04 -26 40 C-30.29 40 -34.58 40 -39 40 C-34.62970634 34.77051256 -30.03088196 29.89710045 -25.1953125 25.09765625 C-24.4713327 24.3750914 -23.74735291 23.65252655 -23.00143433 22.9080658 C-20.71164735 20.62383078 -18.41839007 18.34311688 -16.125 16.0625 C-14.56226839 14.50478961 -12.9997661 12.94684913 -11.4375 11.38867188 C-7.6276469 7.58978398 -3.81494621 3.79377287 0 0 Z " fill="#0096B1" transform="translate(188,226)"/>
<path d="M0 0 C17 0 17 0 22 4 C23.67967818 9.03903455 23.87064828 14.05140623 21.6875 18.9375 C20 21 20 21 17 23 C14.95703125 23.1953125 14.95703125 23.1953125 12.8125 23.125 C11.554375 23.08375 10.29625 23.0425 9 23 C9 26.96 9 30.92 9 35 C6.03 35 3.06 35 0 35 C0 23.45 0 11.9 0 0 Z M9 9 C9 10.65 9 12.3 9 14 C10.32 14 11.64 14 13 14 C13 12.35 13 10.7 13 9 C11.68 9 10.36 9 9 9 Z " fill="#930303" transform="translate(199,399)"/>
<path d="M0 0 C0.74958984 0.00902344 1.49917969 0.01804687 2.27148438 0.02734375 C4.11862654 0.05087422 5.96560412 0.08674439 7.8125 0.125 C7.8125 3.095 7.8125 6.065 7.8125 9.125 C3.8525 9.125 -0.1075 9.125 -4.1875 9.125 C-4.1875 14.735 -4.1875 20.345 -4.1875 26.125 C-0.2275 26.125 3.7325 26.125 7.8125 26.125 C7.8125 29.095 7.8125 32.065 7.8125 35.125 C5.06144578 35.23312003 2.31464913 35.31234945 -0.4375 35.375 C-1.60345703 35.42527344 -1.60345703 35.42527344 -2.79296875 35.4765625 C-8.59519754 35.5757459 -8.59519754 35.5757459 -11.671875 33.234375 C-15.06212921 28.51597997 -14.40865567 23.96238275 -14.4375 18.3125 C-14.458125 17.31412109 -14.47875 16.31574219 -14.5 15.28710938 C-14.54951106 5.99759685 -14.54951106 5.99759685 -11.1875 2.125 C-7.39586973 -0.40275351 -4.37875969 -0.09943035 0 0 Z " fill="#930303" transform="translate(162.1875,398.875)"/>
<path d="M0 0 C0 10.23 0 20.46 0 31 C-10.23 31 -20.46 31 -31 31 C-28.88351285 26.76702571 -26.27277333 23.98384463 -22.96875 20.703125 C-22.37703003 20.10949158 -21.78531006 19.51585815 -21.17565918 18.90423584 C-19.92734419 17.65456282 -18.67651177 16.40740008 -17.42333984 15.16259766 C-15.49992003 13.24992048 -13.58743901 11.32676881 -11.67578125 9.40234375 C-10.46157861 8.18946202 -9.24675607 6.97720048 -8.03125 5.765625 C-7.45725464 5.18758118 -6.88325928 4.60953735 -6.29187012 4.01397705 C-2.22993434 0 -2.22993434 0 0 0 Z " fill="#0097B2" transform="translate(326,273)"/>
<path d="M0 0 C10.23 0 20.46 0 31 0 C31 10.23 31 20.46 31 31 C23.1387126 24.26175366 23.1387126 24.26175366 20.31640625 21.37890625 C19.7023291 20.75661133 19.08825195 20.13431641 18.45556641 19.49316406 C17.83085449 18.85604492 17.20614258 18.21892578 16.5625 17.5625 C11.98083617 12.92092297 7.4074814 8.39303697 2.3203125 4.296875 C1 3 1 3 0 0 Z " fill="#930303" transform="translate(293,148)"/>
<path d="M0 0 C10.23 0 20.46 0 31 0 C29.18770048 3.62459905 28.46667216 4.70384053 25.52734375 7.09765625 C20.23398709 11.57757053 15.42726307 16.50166662 10.5625 21.4375 C8.77440574 23.25093932 6.98416643 25.06226701 5.19140625 26.87109375 C4.40967041 27.66443115 3.62793457 28.45776855 2.82250977 29.27514648 C1 31 1 31 0 31 C0 20.77 0 10.54 0 0 Z " fill="#930303" transform="translate(170,148)"/>
<path d="M0 0 C4.48621278 3.84532524 8.78275491 7.63275431 12.93359375 11.80078125 C13.4563942 12.32262497 13.97919464 12.84446869 14.51783752 13.38212585 C15.60711301 14.47072778 16.69515479 15.56056553 17.78198242 16.65161133 C19.45442194 18.32947684 21.13222544 20.00184826 22.81054688 21.67382812 C23.8727172 22.7366581 24.9345779 23.79979761 25.99609375 24.86328125 C26.49910507 25.36426834 27.00211639 25.86525543 27.52037048 26.38142395 C31 29.88500684 31 29.88500684 31 31 C20.77 31 10.54 31 0 31 C0 20.77 0 10.54 0 0 Z " fill="#0097B2" transform="translate(170,273)"/>
<path d="M0 0 C3.5 0.625 3.5 0.625 6.5 2.625 C8.90675977 6.23513966 8.76288881 7.68465104 7.96875 11.78515625 C7.64017395 13.07481724 7.27196218 14.35472101 6.875 15.625 C6.45377423 17.87153746 6.68811345 19.55332176 7 21.8125 C7.165 23.070625 7.33 24.32875 7.5 25.625 C6.5 26.625 6.5 26.625 3.55859375 26.72265625 C2.36363281 26.71105469 1.16867188 26.69945312 -0.0625 26.6875 C-1.85880859 26.67396484 -1.85880859 26.67396484 -3.69140625 26.66015625 C-4.61824219 26.64855469 -5.54507813 26.63695312 -6.5 26.625 C-6.47679687 25.80515625 -6.45359375 24.9853125 -6.4296875 24.140625 C-6.41164062 23.06296875 -6.39359375 21.9853125 -6.375 20.875 C-6.35179687 19.80765625 -6.32859375 18.7403125 -6.3046875 17.640625 C-6.49803832 14.65528836 -7.0295895 13.16582427 -8.5 10.625 C-8.9375 8.1875 -8.9375 8.1875 -8.5 5.625 C-5.87468349 2.04502294 -4.40324127 0.78629308 0 0 Z " fill="#F8F8FB" transform="translate(247.5,212.375)"/>
<path d="M0 0 C10.56 0 21.12 0 32 0 C28.40777239 4.19093221 25.01936764 8.10213793 21.125 11.9375 C20.34382813 12.70964844 19.56265625 13.48179687 18.7578125 14.27734375 C18.17773438 14.84582031 17.59765625 15.41429687 17 16 C14.08462499 14.68285542 12.0152987 13.26341874 9.765625 10.99609375 C9.19199219 10.42052734 8.61835938 9.84496094 8.02734375 9.25195312 C7.44082031 8.65318359 6.85429687 8.05441406 6.25 7.4375 C5.64800781 6.83486328 5.04601562 6.23222656 4.42578125 5.61132812 C0 1.14038584 0 1.14038584 0 0 Z " fill="#0097B2" transform="translate(231,322)"/>
<path d="M0 0 C2.91537501 1.31714458 4.9847013 2.73658126 7.234375 5.00390625 C7.80800781 5.57947266 8.38164062 6.15503906 8.97265625 6.74804688 C9.55917969 7.34681641 10.14570313 7.94558594 10.75 8.5625 C11.35199219 9.16513672 11.95398438 9.76777344 12.57421875 10.38867188 C17 14.85961416 17 14.85961416 17 16 C6.44 16 -4.12 16 -15 16 C-11.40777239 11.80906779 -8.01936764 7.89786207 -4.125 4.0625 C-3.34382812 3.29035156 -2.56265625 2.51820312 -1.7578125 1.72265625 C-1.17773438 1.15417969 -0.59765625 0.58570312 0 0 Z " fill="#930303" transform="translate(246,113)"/>
<path d="M0 0 C3.98882376 1.53416298 7.64783382 4.4247074 10 8 C9.79816255 11.61865714 7.98920575 13.3374782 5.4375 15.75 C4.79683594 16.36359375 4.15617188 16.9771875 3.49609375 17.609375 C3.00238281 18.06828125 2.50867188 18.5271875 2 19 C-1.21524305 17.59155282 -3.32183868 15.89655214 -5.75 13.375 C-6.36359375 12.74335938 -6.9771875 12.11171875 -7.609375 11.4609375 C-8.06828125 10.97882813 -8.5271875 10.49671875 -9 10 C-8.06409496 8.8944811 -7.12620142 7.79064547 -6.1875 6.6875 C-5.66542969 6.07261719 -5.14335937 5.45773437 -4.60546875 4.82421875 C-3.12827531 3.14575321 -1.59960869 1.56117966 0 0 Z " fill="#0097B2" transform="translate(246,302)"/>
<path d="M0 0 C3.98882376 1.53416298 7.64783382 4.4247074 10 8 C9.79816255 11.61865714 7.98920575 13.3374782 5.4375 15.75 C4.79683594 16.36359375 4.15617187 16.9771875 3.49609375 17.609375 C3.00238281 18.06828125 2.50867188 18.5271875 2 19 C-1.21524305 17.59155282 -3.32183868 15.89655214 -5.75 13.375 C-6.36359375 12.74335938 -6.9771875 12.11171875 -7.609375 11.4609375 C-8.06828125 10.97882813 -8.5271875 10.49671875 -9 10 C-8.06409496 8.8944811 -7.12620142 7.79064547 -6.1875 6.6875 C-5.66542969 6.07261719 -5.14335937 5.45773438 -4.60546875 4.82421875 C-3.12827531 3.14575321 -1.59960869 1.56117966 0 0 Z " fill="#0097B2" transform="translate(326,216)"/>
<path d="M0 0 C3.98882376 1.53416298 7.64783382 4.4247074 10 8 C9.79816255 11.61865714 7.98920575 13.3374782 5.4375 15.75 C4.79683594 16.36359375 4.15617188 16.9771875 3.49609375 17.609375 C3.00238281 18.06828125 2.50867188 18.5271875 2 19 C-1.21524305 17.59155282 -3.32183868 15.89655214 -5.75 13.375 C-6.36359375 12.74335938 -6.9771875 12.11171875 -7.609375 11.4609375 C-8.06828125 10.97882813 -8.5271875 10.49671875 -9 10 C-8.06409496 8.8944811 -7.12620142 7.79064547 -6.1875 6.6875 C-5.66542969 6.07261719 -5.14335937 5.45773438 -4.60546875 4.82421875 C-3.12827531 3.14575321 -1.59960869 1.56117966 0 0 Z " fill="#930303" transform="translate(168,216)"/>
<path d="M0 0 C3.21524305 1.40844718 5.32183868 3.10344786 7.75 5.625 C8.67039063 6.57246094 8.67039063 6.57246094 9.609375 7.5390625 C10.06828125 8.02117187 10.5271875 8.50328125 11 9 C10.06409496 10.1055189 9.12620142 11.20935453 8.1875 12.3125 C7.40439453 13.23482422 7.40439453 13.23482422 6.60546875 14.17578125 C5.12827531 15.85424679 3.59960869 17.43882034 2 19 C-1.98882376 17.46583702 -5.64783382 14.5752926 -8 11 C-7.79816255 7.38134286 -5.98920575 5.6625218 -3.4375 3.25 C-2.79683594 2.63640625 -2.15617188 2.0228125 -1.49609375 1.390625 C-1.00238281 0.93171875 -0.50867188 0.4728125 0 0 Z " fill="#930303" transform="translate(246,130)"/>
</svg>
